<?xml version="1.0" encoding="utf-8"?>
<!-- Generator: Adobe Illustrator 18.1.1, SVG Export Plug-In . SVG Version: 6.00 Build 0)  -->
<svg version="1.1" id="Layer_1" xmlns="http://www.w3.org/2000/svg" xmlns:xlink="http://www.w3.org/1999/xlink" x="0px" y="0px"
	 viewBox="0 0 135.7 31.4" enable-background="new 0 0 135.7 31.4" xml:space="preserve">
<g>
	<path fill="#FFFFFF" d="M15.7,2.6C8.5,2.6,2.6,8.5,2.6,15.7c0,7.2,5.9,13.1,13.1,13.1c7.2,0,13.1-5.9,13.1-13.1
		C28.8,8.5,23,2.6,15.7,2.6 M15.7,31.4C7.1,31.4,0,24.4,0,15.7C0,7.1,7.1,0,15.7,0s15.7,7.1,15.7,15.7
		C31.4,24.4,24.4,31.4,15.7,31.4"/>
	<polygon fill="#FFFFFF" points="13.7,15.4 13.7,20.7 11,20.7 11,11 13.3,11 17.7,16.4 17.7,11 20.5,11 20.5,20.7 18.1,20.7 	"/>
	<path fill="#FFFFFF" d="M43.3,13.4v0.8c0.5-0.6,1.2-0.9,2.2-0.9c1.8,0,2.5,1.3,2.5,3v1.8c0,0.4,0.1,0.7,0.5,0.7
		c0.2,0,0.5-0.1,0.7-0.2l0.1,1.4c-0.3,0.2-0.9,0.3-1.5,0.3c-1,0-1.6-0.5-1.6-1.8v-1.9c0-1-0.5-1.6-1.4-1.6c-0.8,0-1.3,0.6-1.5,1.2v4
		h-1.8v-6.8H43.3z"/>
	<path fill="#FFFFFF" d="M53.5,18.7c1.1,0,1.9-0.8,1.9-1.9c0-1.1-0.8-1.9-1.9-1.9c-1.1,0-1.9,0.8-1.9,1.9
		C51.6,17.8,52.4,18.7,53.5,18.7 M53.5,13.2c2.1,0,3.7,1.5,3.7,3.6c0,2-1.5,3.6-3.7,3.6c-2.1,0-3.6-1.5-3.6-3.6
		C49.9,14.7,51.4,13.2,53.5,13.2"/>
	<path fill="#FFFFFF" d="M60.5,10.9v3.2c0.5-0.6,1.2-0.9,2.2-0.9c1.8,0,2.5,1.3,2.5,3v1.8c0,0.4,0.1,0.7,0.5,0.7
		c0.2,0,0.4-0.1,0.7-0.2l0.1,1.4c-0.3,0.2-0.9,0.3-1.5,0.3c-1,0-1.6-0.5-1.6-1.8v-1.9c0-1-0.5-1.6-1.4-1.6c-0.8,0-1.3,0.6-1.5,1.2v4
		h-1.8v-9.2H60.5z"/>
	<path fill="#FFFFFF" d="M72,15.7c0-0.5-0.4-1-1.3-1c-1,0-1.5,0.6-1.6,1.2H72C72,15.9,72,15.8,72,15.7 M73.7,19.4
		C73,20,72,20.3,70.9,20.3c-2.6,0-3.7-1.6-3.7-3.6c0-2,1.4-3.6,3.6-3.6c2.1,0,3,1.3,3,2.8c0,0.4-0.1,1.1-0.1,1.3H69
		c0.2,0.9,0.8,1.5,1.9,1.5c0.9,0,1.6-0.3,2.1-0.7L73.7,19.4z"/>
	<path fill="#FFFFFF" d="M77.2,13.4v0.8c0.5-0.5,1.2-0.9,2.1-0.9c1.1,0,1.8,0.4,2.2,1.2c0.5-0.7,1.3-1.2,2.4-1.2
		c1.8,0,2.5,1.3,2.5,3v1.8c0,0.4,0.1,0.7,0.5,0.7c0.2,0,0.5-0.1,0.7-0.2l0.1,1.4c-0.3,0.2-0.9,0.3-1.5,0.3c-1,0-1.6-0.5-1.6-1.8
		v-1.9c0-1-0.5-1.6-1.3-1.6c-0.7,0-1.2,0.5-1.4,1v4.2H80v-3.6c0-1-0.4-1.6-1.3-1.6c-0.8,0-1.2,0.5-1.5,1.1v4.2h-1.8v-6.8H77.2z"/>
	<path fill="#FFFFFF" d="M90.3,12.5h-1.5l1.1-2h1.8L90.3,12.5z M90.5,13.4v4.7c0,0.4,0.1,0.7,0.5,0.7c0.3,0,0.6-0.1,0.7-0.2l0.1,1.4
		c-0.1,0.1-0.8,0.3-1.5,0.3c-1,0-1.6-0.5-1.6-1.8v-5.1H90.5z"/>
	<path fill="#FFFFFF" d="M96.3,19.1c1.4,0,2.3-1,2.3-2.3c0-1.3-0.9-2.3-2.3-2.3c-1.4,0-2.3,1-2.3,2.3C94,18.1,94.9,19.1,96.3,19.1
		 M96.3,13.2c2.1,0,3.6,1.5,3.6,3.6c0,2-1.5,3.6-3.6,3.6c-2.1,0-3.6-1.5-3.6-3.6C92.7,14.7,94.2,13.2,96.3,13.2"/>
	<path fill="#FFFFFF" d="M102.9,10.9v7.3c0,0.6,0.3,0.8,0.7,0.8c0.3,0,0.5-0.1,0.8-0.2l0.1,1.1c-0.3,0.1-0.8,0.3-1.4,0.3
		c-0.9,0-1.5-0.5-1.5-1.7v-7.7H102.9z"/>
	<path fill="#FFFFFF" d="M106.1,15.2c0-0.5-0.1-0.8-0.5-0.8c-0.2,0-0.5,0.1-0.7,0.2l-0.1-1.1c0.3-0.2,0.8-0.3,1.3-0.3
		c0.9,0,1.4,0.5,1.4,1.6v2.2c0,1.3,0.6,1.9,1.7,1.9c1.1,0,1.9-0.8,1.9-2.2c0-1.5-0.5-2.8-0.8-3.5h1.4c0.2,0.5,0.7,2,0.7,3.6
		c0,2-1.3,3.3-3.3,3.3c-2,0-3.1-1.1-3.1-3V15.2z"/>
	<path fill="#FFFFFF" d="M119.1,15.8c0-0.8-0.5-1.5-1.8-1.5c-1.3,0-2,0.9-2.1,1.8h3.8C119.1,16,119.1,15.9,119.1,15.8 M120.3,19.4
		c-0.7,0.6-1.7,0.9-2.8,0.9c-2.6,0-3.7-1.6-3.7-3.6c0-2,1.4-3.6,3.6-3.6c2.1,0,3,1.3,3,2.8c0,0.4-0.1,0.9-0.1,1.2h-5
		c0.1,1.2,0.8,2,2.3,2c0.9,0,1.7-0.4,2.2-0.8L120.3,19.4z"/>
	<path fill="#FFFFFF" d="M122.6,15.2c0-0.5-0.1-0.8-0.5-0.8c-0.3,0-0.6,0.1-0.7,0.2l-0.1-1c0.1-0.1,0.7-0.3,1.3-0.3
		c0.8,0,1.2,0.4,1.3,1.2c0.4-0.7,0.9-1.2,1.8-1.2c0.6,0,1.1,0.2,1.2,0.5l-0.2,1.2c-0.1-0.2-0.6-0.4-1.2-0.4c-1,0-1.3,0.9-1.5,1.8
		v3.9h-1.3V15.2z"/>
	<path fill="#FFFFFF" d="M133,15.2c-0.4-0.4-1.1-0.8-1.8-0.8c-1.4,0-2.2,1-2.2,2.3c0,1.4,0.9,2.3,2.2,2.3c0.8,0,1.4-0.4,1.8-0.8
		V15.2z M134.4,18.4c0,0.5,0.1,0.8,0.5,0.8c0.3,0,0.5-0.1,0.7-0.2l0.1,1.1c-0.3,0.2-0.8,0.3-1.3,0.3c-0.7,0-1.2-0.3-1.3-1
		c-0.5,0.5-1.3,1-2.2,1c-1.9,0-3.2-1.5-3.2-3.5c0-2.1,1.3-3.5,3.2-3.5c0.9,0,1.7,0.3,2.2,0.8v-0.7h1.3V18.4z"/>
</g>
</svg>
